<mxfile host="app.diagrams.net" modified="2023-12-10T06:29:30.393Z" agent="Mozilla/5.0 (Windows NT 10.0; Win64; x64) AppleWebKit/537.36 (KHTML, like Gecko) Chrome/118.0.0.0 Safari/537.36 OPR/104.0.0.0" version="22.1.7" etag="mcf7Jh8ebeIp07b6vsYo" type="github">
  <diagram name="Page-1" id="dw8pbqw-n0SPfMg4s-sq">
    <mxGraphModel>
      <root>
        <mxCell id="0" />
        <mxCell id="1" parent="0" />
      </root>
    </mxGraphModel>
  </diagram>
</mxfile>
